<svg width="550" height="140" xmlns="http://www.w3.org/2000/svg">
 <!-- Created with Method Draw - http://github.com/duopixel/Method-Draw/ -->

 <g>
  <title>background</title>
  <rect fill="none" id="canvas_background" height="142" width="552" y="-1" x="-1"/>
  <g display="none" overflow="visible" y="0" x="0" height="100%" width="100%" id="canvasGrid">
   <rect fill="url(#gridpattern)" stroke-width="0" y="0" x="0" height="100%" width="100%"/>
  </g>
 </g>
 <g>
  <title fill="#ffffff">Layer 1</title>
  <path stroke="null" fill="#ffffff" id="svg_5" d="m535.387842,105.919749l-49.885957,-79.880998l7.67476,-12.565549c0.959347,-2.243852 1.918694,-4.936467 -0.479673,-6.731549c-2.39836,-1.795082 -4.317054,-0.897541 -6.235748,0.44877l-6.23574,10.321704l-6.235748,-9.424164c-0.959347,-1.795082 -3.357707,-3.590156 -6.235748,-1.795082c-3.357707,2.243852 -2.878033,4.038926 -1.439013,6.282778l8.634107,13.46309l-50.365638,80.778539c0,0 -2.878033,3.141385 -1.439013,5.385237c1.918686,1.795074 3.83738,1.346304 6.23574,1.346304l41.251858,0l0,-30.516335c0,-4.936467 4.317054,-8.975393 9.593454,-8.975393s9.593454,4.038926 9.593454,8.975393l0,30.516335l41.731523,0c2.878033,0 4.317054,0.897541 5.756074,-1.795074c1.439013,-1.795082 -1.43902,-5.834008 -1.918694,-5.834008zm-69.552539,-1.346311l-29.739709,0l5.756074,-8.975393l23.983635,0l0,8.975393zm14.390181,-35.004032c-8.154441,0 -14.390181,5.834008 -14.390181,13.46309l0,8.077852l-21.105602,0l35.495784,-57.442515l35.975449,57.442515l-21.585268,0l0,-8.077852c0,-7.180312 -6.235748,-13.46309 -14.390181,-13.46309zm14.390181,35.004032l0,-8.975393l23.983635,0l5.756066,8.975393l-29.739702,0z"/>
  <g id="svg_6"/>
  <text font-weight="normal" stroke="null" transform="matrix(3.1528962699885437,0,0,3.1528962699885437,-98.08767548842069,-387.31267491407067) " xml:space="preserve" text-anchor="start" font-family="Arvo, sans-serif" font-size="24" id="svg_7" y="158.425078" x="36.415672" stroke-opacity="null" stroke-width="0" fill="#ffffff">Let's Camp</text>
 </g>
</svg>