<svg width="24" height="24" xmlns="http://www.w3.org/2000/svg">

 <g>
  <title>background</title>
  <rect fill="none" id="canvas_background" height="402" width="582" y="-1" x="-1"/>
 </g>
 <g>
  <title>Layer 1</title>
  <path fill="#ffffff" id="svg_1" d="m23.5,22.3l-10.4,-17.8l1.6,-2.8c0.2,-0.5 0.4,-1.1 -0.1,-1.5c-0.5,-0.4 -0.9,-0.2 -1.3,0.1l-1.3,2.3l-1.3,-2.1c-0.2,-0.4 -0.7,-0.8 -1.3,-0.4c-0.7,0.5 -0.6,0.9 -0.3,1.4l1.8,3l-10.5,18c0,0 -0.6,0.7 -0.3,1.2c0.4,0.4 0.8,0.3 1.3,0.3l8.6,0l0,-6.8c0,-1.1 0.9,-2 2,-2s2,0.9 2,2l0,6.8l8.7,0c0.6,0 0.9,0.2 1.2,-0.4c0.3,-0.4 -0.3,-1.3 -0.4,-1.3zm-14.5,-0.3l-6.2,0l1.2,-2l5,0l0,2zm3,-7.8c-1.7,0 -3,1.3 -3,3l0,1.8l-4.4,0l7.4,-12.8l7.5,12.8l-4.5,0l0,-1.8c0,-1.6 -1.3,-3 -3,-3zm3,7.8l0,-2l5,0l1.2,2l-6.2,0z"/>
 </g>
</svg>